<?xml version="1.0" encoding="UTF-8"?>
<svg id="Layer_2" data-name="Layer 2" xmlns="http://www.w3.org/2000/svg" viewBox="0 0 200 166.51">
  <defs>
    <style>
      .cls-1 {
        fill: #37161d;
      }

      .cls-2 {
        fill: #f7f9fc;
      }

      .cls-3 {
        fill: #f6f6fa;
      }

      .cls-4 {
        fill: #9e9c9b;
      }

      .cls-5 {
        fill: #12111c;
      }

      .cls-6 {
        fill: #fcfdff;
      }

      .cls-7 {
        fill: #fdf2d9;
      }

      .cls-8 {
        fill: #ef5423;
      }

      .cls-9 {
        fill: #004df8;
      }

      .cls-10 {
        fill: #1c164c;
      }

      .cls-11 {
        fill: #ebedf5;
      }

      .cls-12 {
        fill: #ef5223;
      }

      .cls-13 {
        fill: #fdd9be;
      }

      .cls-14 {
        fill: #fdf1d7;
      }

      .cls-15 {
        fill: #fff;
      }

      .cls-16 {
        fill: #0041dd;
      }

      .cls-17 {
        fill: #015ffd;
      }

      .cls-18 {
        fill: #ef5123;
      }

      .cls-19 {
        fill: #fff3da;
      }

      .cls-20 {
        fill: #f0f0f7;
      }

      .cls-21 {
        fill: #ee4223;
      }

      .cls-22 {
        fill: #424390;
      }

      .cls-23 {
        fill: #f7d6bc;
      }

      .cls-24 {
        fill: #ee3824;
      }

      .cls-25 {
        fill: #ed312b;
      }

      .cls-26 {
        fill: #f37629;
      }

      .cls-27 {
        fill: #b83e2b;
      }

      .cls-28 {
        fill: #fbdac0;
      }

      .cls-29 {
        fill: #fddac0;
      }

      .cls-30 {
        fill: #ef4d23;
      }

      .cls-31 {
        fill: #f5f5fa;
      }

      .cls-32 {
        fill: #fdd9bf;
      }

      .cls-33 {
        fill: #fafbfd;
      }

      .cls-34 {
        fill: #fff3db;
      }

      .cls-35 {
        fill: #fff2d9;
      }

      .cls-36 {
        fill: #ee3c23;
      }

      .cls-37 {
        fill: #481213;
      }

      .cls-38 {
        fill: #f5b386;
      }

      .cls-39 {
        fill: #f9f9fc;
      }

      .cls-40 {
        fill: #11101d;
      }

      .cls-41 {
        fill: #ef4d40;
      }

      .cls-42 {
        fill: #ed3724;
      }

      .cls-43 {
        fill: #ed3624;
      }

      .cls-44 {
        fill: #221018;
      }

      .cls-45 {
        fill: #0055fd;
      }

      .cls-46 {
        fill: #fddec5;
      }

      .cls-47 {
        fill: #121122;
      }

      .cls-48 {
        fill: #00349f;
      }

      .cls-49 {
        fill: #ee3a24;
      }

      .cls-50 {
        fill: #201019;
      }

      .cls-51 {
        fill: #211018;
      }

      .cls-52 {
        fill: #ef4e23;
      }

      .cls-53 {
        fill: #060608;
      }

      .cls-54 {
        fill: #040404;
      }

      .cls-55 {
        fill: #f1f2f8;
      }

      .cls-56 {
        fill: #f7d3b6;
      }

      .cls-57 {
        fill: #100f1c;
      }
    </style>
  </defs>
  <g id="Layer_1-2" data-name="Layer 1">
    <g id="Generative_Object" data-name="Generative Object">
      <g>
        <path class="cls-54" d="M167.4,81.22c-.06.25-.01.36.15.33,7.79-3.9,17.32-6.44,25.81-3.9,1.88.56,4.83,1.75,5.03,3.02.06.36-.06,1-.47,1.27-3.42,2.31-4.28,8.49-3.89,12.78.28,3.18,1.15,6.09,2.02,9.15l2.83,9.98c1.19,5.23,1.48,10.39.68,15.66-1.78,11.66-9.49,21.17-20.51,25.31l4.59-.56c.21-.03.45.14.51.24.45.67-2.26,2.37-4.01,2.91l-37.33-.02c-4.53,4.18-11.09,5.18-17.11,5.45-1.96.95-3.99,1.3-6.19.96-2.51,1.84-5.2,2.83-8.11,1.48-3.17,1.89-7.3,1.63-10-.93-1.86.04-3.56-.57-4.77-1.95-1.1-1.44-1.41-3.21-1.06-5.03l-29.26-.15c-5.94,3.69-13.09,4.75-19.85,2.88-3.71-1.03-6.65-3.54-8.36-6.91-3.46-8.28,1.43-16.72,9.15-20.53.57-2.5,1.33-4.79,2.72-6.82-1.45-1.2-2.59-2.35-3.45-3.91-2.64-.28-5.1,1.63-5.65-.2-.23-.75-.3-1.55-.12-2.34.09-.23-.05-.39-.29-.3l-3.21,1.15c-.37.13-.94.14-1.16-.23-1.92-3.24-1.9-7.08-.11-10.45-2.82.09-6.53-1.48-5.28-2.4,2.62-1.93,4.7-4.38,6.08-7.33.67-1.42,1.42-2.71,1.68-4.44-3.97,2.71-8.85,2.8-12.71.21-.3-.2-.47-.47-.44-.76.07-.75,2.12-1.08,3.37-2.46-8.11-1.93-15.05-7.98-19.45-15.07-3.85-6.21-6.49-12.89-8.03-20.03C.52,54.11,0,51.13,0,47.92s1.63-3.88,4.61-4.93c10.87-2.94,21.97-1.58,32.16,3.29,3.42-10.62,10.58-19.67,21.15-23.85-.56-1.69.06-3.3,1.35-4.5,3.34-3.11,9.29-4.44,12.49-1.75.65.55.93,1.36,1.04,2.31,10.34-1.62,20.06.53,28.36,6.92,6.74-9.77,14.8-16.81,25.01-22.51,4.18-2.3,9.05-4.93,11.85-.46,2.41,3.83,4.13,7.93,5.62,12.25,4.92,14.28,6.99,31.2.11,45.03-1.59,3.21-3.63,5.97-6.31,8.45,3.01,1.07,5.93-.27,5.45,1.46-1.59,3.75-5.54,5.94-9.72,6.3,2.73,3.68,6.97,5.37,11.36,5.44.29,0,.54.04.68.18.69.69-1.08,3.38-2.8,4.41l1.18.97,2.39,2.29c.47.45.55,1.06.21,1.64-1.77,3.03-4.12,5.52-7.03,7.76.88.42,1.76.63,2.45,1.27.56.51.48,1.3-.09,1.75l-5.58,4.38-8.55,5.41c6.19,4.25,8.02,11.11,3.68,17.46l4.67,4.67c.84-2.03,1.39-4.01,1.65-6.16l1.13-9.48c.3-2.55.99-8.93,1.72-9.11.11-.03.38,0,.47.16l1.42,2.69c1.3-12.04,8.68-22.5,18.71-28.74,2.23-1.39,4.58-2.57,7.17-3.16.52.48-.03,1.24-.59,1.47Z"/>
        <g>
          <g>
            <g>
              <path class="cls-35" d="M134.65,10.24c.5-.56,1.57.47,1.94.95,3.13,3.95,6.09,9.48,6.96,14.48.11.62.21,1.27.03,1.88.14.15.27.31.38.48s.21.34.24.51c3.09,15.08-1.65,30.39-14.7,39.06-.13.08-.29.11-.47.14s-.36.03-.54.02c-.51.13-.63-.13-.45-.61,5.88-6.55,8.11-15.62,6.89-24.25l-2.24,2.14c-.46.09-.79.11-.83-.39,1.19-3.77,2.74-21.14-5.08-16.44-3.91,2.35-6.58,6.6-8.91,10.41-.66.47-.69.13-.65-.52,1.88-7.36,4.28-13.3,8.56-19.73,2.02-3.04,5.54-7.57,8.85-8.13Z"/>
              <path class="cls-29" d="M128.51,67.77c.19.54-.34.38-.77.25-.52.27-1.47-1.29-1.66-1.76l.19-.46c1.1-.62,2.19-1.21,2.96-2.32.33-.47.59-1.27.06-1.66-.78-.58-1.74-.57-2.73-.84,3.87-3.1,4.4-10.33,2-9.36l-2.48,1c.93-2.79.93-8.52-.24-9.07-1.39-.64-4.17,1.28-6.1,2.41l-3.76-1.5,1.27-6.37c.06.11,0,.3.2.49,2.31-4.01,6.33-9.93,10.66-11.42,1.52-.52,2.98-.06,3.72,1.39,2.17,4.29,1.63,11.55.4,16.4l3-2.98c1.57,8.85-.75,18.8-6.8,25.36-.09.09-.03.34.1.43Z"/>
              <path class="cls-26" d="M127.14,15c-3.53,4.61-6.37,9.66-8.39,15.22-1.68,4.36-2.67,8.73-3.64,13.41-3.06-6.96-7.4-12.86-13.2-17.7,3.98-5.85,8.73-10.97,14.13-15.25.32-.23.5-.19.54.21-3.14,8.57,5.16,7.49,10.04,3.78.25-.14.4.06.52.33Z"/>
              <path class="cls-27" d="M144.6,20.66l-.31,6.74c-.13.44-.39.51-.69.15-1.31-5.84-3.29-11.26-7.2-15.98-.49-.59-1.15-1.07-1.74-1.33-.25-1.24-2.06-.37-3.59.79s-2.68,2.63-3.93,3.97c-.35-.04-.58.17-.88.36-1.9,1.2-3.83,2.2-6.08,2.49-1.66.22-3.56-.24-4.31-1.81s-.34-3.49.29-5.06c.1-.13.07-.24-.12-.3,3.25-2.58,6.7-4.85,10.42-6.92,2.16-1.29,4.36-2.42,6.85-2.89,1.72-.33,3.21.75,4.08,2.17,2.24,3.62,3.96,7.37,5.25,11.43l1.96,6.19Z"/>
              <path class="cls-52" d="M138.52,65.86c-1.67.94-3.38,1.82-5.13,2.64-1,.44-2.1.68-3.2.64-.8-.03-2.48-.19-2.45-1.13.23,0,.53-.1.77-.25,7.91-4.89,13.49-12.91,15.36-22.17,1.22-6.05,1.04-12.15-.28-18.05.05.02.29-.06.3-.24l.4-6.25c.01-.22.19-.38.3-.4,3.18,12.11,4.33,25.07-.77,36.88-1.34,3.11-3.07,5.94-5.31,8.32Z"/>
              <path class="cls-36" d="M126.26,65.8l1.47,2.22c1.54,1.02,3.88.9,5.65.04,1.15-.56,2.09-1.15,3.31-1.57.59-.21,1.11-.76,1.83-.62-.84.89-1.66,1.74-2.85,2.67,2.11.89,4.18.97,6.37,1.05-2.16,3.89-6.11,5.69-10.43,5.47,1.45,2.63,3.54,4.36,5.91,5.67-.69-.2-1.38-.26-2.1-.64-2.08-1.11-3.54-2.65-4.7-4.69-1.6-2.83-3.34-5.47-5.45-7.96l-4.58-4.57c-1.03-1.03-2.04-1.61-3.36-1.96-.02-.1-.05-.48-.21-.57,1.27.19,2.96-.8,4.24-1.64.89.56,1.91.41,3.07-.43,1.64-1.1,3.04-2.5,4.19-4.22l.49.04c-.61,5.65-4.35,6.74-4.24,7.35.09.51,2.23.17,3.93.96-.95,2.4-4.08,2.71-4.03,3.33.03.46,1.03.34,1.5.08Z"/>
              <path class="cls-26" d="M129.11,54.08l-2.07,2.53c-1.56,1.97-5.71,4.06-5.69,2.08.77-.51,1.47-1.22,2.07-2.02,2.04-2.71,1.62-6.47-.94-8.61l-1.87-1.57c1.47-1.11,2.92-1.86,4.71-2.35,1.17,3.05.45,6.65-.54,9.97l4.2-1.69c.21.6.18,1.16.12,1.66Z"/>
            </g>
            <g>
              <path class="cls-17" d="M104.07,43.84c.89-.15,1.8-.14,2.69-.02l1.6.03,1.47.14c.21.08.53.05.76.05l.65.17.36.03.85.2h.17s.64.21.64.21c1.77.28,3.43.94,5.07,1.67.3.48,0,.64-.51.65-10.61-3.92-22.54-1.94-32.4,3.27l-17.3,10.08c-3.74,2.49-7.31,5.2-10.7,8.13-4.8,3.76-10.47,7.51-16.82,7.17-.91-.05-2.83-.38-2.88-1.41.8-1.41,1.89-2.56,3.02-3.82,8.73-9.74,21.13-16.87,33.65-20.65,7.18-2.17,14.46-3.83,21.71-5.14l.68-.14.58-.03.85-.18.58-.03,1.06-.18.78-.03,2.09-.12c.39-.17.95-.05,1.38-.05Z"/>
              <path class="cls-48" d="M117.4,59.47c-3.44-1.77-6.63-3.29-10.26-4.21-11.04-2.79-23.34-.9-33.63,4.27,3.73-2.83,7.6-5.17,11.69-7.27,9.22-4.75,19.14-7,29.23-4.1,2.07.6,3.95,1.41,5.58,2.78,1.77,1.49,1.82,4.06.5,5.86-.81,1.11-1.66,2.04-3.11,2.67Z"/>
              <path class="cls-45" d="M44.22,65.83c-2.58,2.4-4.82,4.73-6.94,7.56-3.3-9.18-2.28-20.53,1.28-29.56,2.45-6.23,6.29-11.85,11.61-15.95-2.71,3.52-4.87,6.96-6.01,11.17-1.15,3.92-1.59,7.81-1.63,11.92-.01,5.06.54,9.93,1.69,14.86Z"/>
              <path class="cls-45" d="M114.28,43.93c-4.3-.89-8.46-1.15-12.96-.76-2.67-11.15-7.6-19.65-18.52-24.13,8.07.55,15.1,4.28,20.92,9.55,4.4,4.33,8.01,9.33,10.57,15.33Z"/>
              <path class="cls-9" d="M118.34,46.33c1.34.6,2.7,1.38,3.76,2.46,2.09,2.11,2.35,5.21.56,7.54-.57.74-1.18,1.5-2.13,1.78,1.55-1.81,2.17-4.24,1.06-6.35-1.92-3.64-9.18-5.22-13.49-5.57-4.76-.39-9.39.19-13.95,1.56-11.82,3.55-21.03,10.91-30.42,18.17l-3.92,3.03c-5.25,4.06-10.13,7.9-17.14,8.29-3.65.2-5.67-1.77-4.96-3.03.99.73,2.21,1.02,3.53,1.03,6.84.07,13.1-4.74,18.29-9.03,3.01-2.49,5.89-4.81,9.29-6.79l15.4-8.97c6.16-3.59,12.83-5.41,19.95-5.9,4.65-.32,9.15.42,13.54,2.01.26.09.6-.11.62-.23Z"/>
              <path class="cls-45" d="M71.98,18.67c-4.43,1-8.73,1.91-13.11,3.49-.56-.81-.38-1.91.3-2.77,2.43-3.04,6.76-4.4,10.5-3.47,1.27.5,2.22,1.11,2.31,2.74Z"/>
              <path class="cls-9" d="M106.76,43.82l-2.69.02c.83-.28,1.85-.26,2.69-.02Z"/>
              <path class="cls-9" d="M102.7,43.89c-.66.28-1.38.09-2.09.12.63-.29,1.38-.13,2.09-.12Z"/>
              <path class="cls-9" d="M109.84,43.99c-.49.08-1.09.2-1.47-.14.51,0,1-.05,1.47.14Z"/>
              <path class="cls-9" d="M99.83,44.04c-.24.33-.7.16-1.06.18.31-.22.69-.16,1.06-.18Z"/>
              <path class="cls-9" d="M112.47,44.45c-.29-.01-.69.08-.85-.2.29.03.65-.04.85.2Z"/>
              <path class="cls-9" d="M98.19,44.25c-.18.3-.56.16-.85.18.24-.2.55-.16.85-.18Z"/>
              <path class="cls-9" d="M113.27,44.66c-.2-.03-.54.11-.64-.2.23.01.49,0,.64.2Z"/>
              <path class="cls-9" d="M96.77,44.46c-.09.37-.5.11-.68.14.21-.13.45-.13.68-.14Z"/>
              <path class="cls-9" d="M111.25,44.22c-.22-.02-.54.08-.65-.17.24,0,.47.01.65.17Z"/>
              <g>
                <path class="cls-45" d="M73.37,49.27c-10.26,3.25-20.51,8.72-28.52,16.01-1.99-8.59-2.47-19.3.51-27.52,1.8-4.96,4.84-9.44,9.09-12.61,3.96-2.95,19.76-6.85,24.42-6.22s8.83,3.11,12.3,6.32c5.05,4.68,7.9,11.23,9.33,17.97l-5.76.81-6.22,1.31c-5.12,1.15-10,2.29-15.13,3.92Z"/>
                <g>
                  <path class="cls-33" d="M77.53,45.98c-.46.33-.77.32-1.24.48l-1.26-4.63c.35-.25.72-.36,1.18-.4l.53,1.65,1.08-1.93c.28-.49,1.09-.67,1.51-.48l-1.19,2.37,2.55,2.15c-1.51.65-1.85.12-3.09-1.04-.53.43-.44,1.11-.06,1.84Z"/>
                  <path class="cls-6" d="M82.25,42.75c-.18.09-.05.68.12.87l2.17-.55c.2.29.28.58.28,1.06l-3.48.91-1.16-4.75,3.36-.93c.24.11.41.7.28.89l-2.06.61c-.06.34.03.61.2.91.59-.17,1.12-.4,1.81-.39.2,0,.43.63.28.79l-1.8.58Z"/>
                  <path class="cls-39" d="M67.27,49.21l-1.08-3.51-1.31.33c-.21-.07-.41-.73-.26-.95l3.88-1.31c.22.26.33.81.14,1.01-.25.27-.7.29-1.14.42l.96,3.64-1.19.36Z"/>
                  <path class="cls-6" d="M65.6,48.81c.23.04.44.61.38.92l-3.13,1.22-1.48-4.63c.36-.29.74-.44,1.23-.44l1.14,3.52,1.85-.6Z"/>
                  <path class="cls-39" d="M76.84,28.1c-.33.18-.63.02-.74-.1-.19-.22-.16-.62.15-.8l2.53-1.52c.29-.18.58.03.72.15.2.18.27.6,0,.76l-2.67,1.51Z"/>
                  <path class="cls-31" d="M74.72,25.97c-.2.29-.65.24-.81.14-.18-.11-.27-.44-.1-.71l1.43-2.26c.17-.27.56-.32.81-.2.18.08.45.39.26.66l-1.59,2.37Z"/>
                  <path class="cls-3" d="M80.72,29.72c.58,1.02-3.56,1.33-3.78.6-.06-.2.06-.58.39-.62l2.76-.35c.32-.04.55.22.63.37Z"/>
                  <g>
                    <path class="cls-15" d="M67.16,40.81c.86.56,1.78.58,2.68.81.06-.39.18-.59.26-.74.14-.25.67-.12.66.14-.31.54-.95.94-1.44,1.32-1.91-.25-3.42-1.24-5.16-1.87-3.61-1.3-5.72-4.74-4.74-8.6,1.07-4.2,5.3-6.74,9.55-6.03,2.19.37,4.01,1.57,5.02,3.18,2.43,3.87.36,7.78-2.63,11.26-.43-.49-.86-.65-1.4-.46l-2.81.99Z"/>
                    <path class="cls-45" d="M68.5,32.59c.16.71-.62,1.03-1.06,1.17s-1.21.16-1.51-.36c-.45-.77-.45-1.69-.75-2.64-1.19.64-1.76,2.01-1.48,3.3.26,1.19,1.3,2.12,2.67,2.34l.78,2.9c-1.34-.3-2.61-.77-3.67-1.6-2.24-1.74-2.74-4.49-1.31-6.93,1.26-2.14,3.66-3.18,6.19-2.89,1.54.17,2.93,1.05,3.71,2.17,1.83,2.64.53,6-1.89,8.34l-.66-2.83c.64-.68,1.12-1.4,1.21-2.29.2-1.8-1.04-3.24-2.8-3.24l.57,2.54Z"/>
                  </g>
                  <g>
                    <path class="cls-15" d="M73.78,47.2c-1.43.99-3.3.62-3.96-.87-.63-1.41,0-3.11,1.6-3.63,1.27-.41,2.55-.03,3.22,1.19.55.99.31,2.51-.86,3.31Z"/>
                    <circle class="cls-45" cx="72.26" cy="45.14" r="1.43"/>
                  </g>
                  <g>
                    <path class="cls-2" d="M60.48,51.09c-.47-.26-1.52.27-1.77.67-.15.24-.06.75-.21.88-.23.21-.58.42-1.08.38l.16-5.24c.41-.28.82-.46,1.33-.49l3.3,3.78c-.3.31-.58.36-.79.46-.39.18-.53-.21-.95-.43Z"/>
                    <path class="cls-22" d="M59.74,50.1l-1,.45c-.11-.57-.14-1.01.02-1.66l.98,1.21Z"/>
                  </g>
                </g>
              </g>
            </g>
          </g>
          <g>
            <path class="cls-4" d="M167.55,81.55c-.27.13-.39.45-.83.29.19-.21.38-.5.68-.63l.15.33Z"/>
            <path class="cls-12" d="M163.46,84.74l-.04.45c-3.99,3.6-6.44,9.64-7.1,14.96,2.34-1.83,6.63-4.7,9.62-4.88,1.29-.08,1.31-.04.75,1.09-4.87,6.2-5.05,14.13-2.34,21.32-.08.96-.02,1.02.18.19,3.74-4.09,8.16-7.69,12.43-10.99.52-.2.67-.16.98.32.86,1.31,1.77,4.91,2.16,6.57,1.26,5.35,1.25,10.08-.57,15.3-.04.12-.15.22-.27.33s-.26.2-.41.28c.12.11.29.29.24.4-.29.69-1.36,2.7-1.8,3.26-.28.09-.4.23-.37.43l-.08.49c-3.29,4.19-6.9,7.89-11.6,10.6-.82.47-4.42,2.5-4.93,2.03-.09-.09-.05-.32.02-.59,1.72-4.08,2.76-8.31,2.48-12.76-3.79,3.64-8.64,6.26-13.86,7.05-.82.05-.66-.39-.33-1.11,1.67-2.49,2.63-5.42,2.82-8.4-.8.82-5.53,4.72-6.28,3.98-.1-.1-.1-.29-.07-.52,2.07-6.86.48-14.02-2.53-20.32l.29-.65c.56-11.98,7.37-22.4,17.21-29.19,1.93-1.33,3.85-2.32,6.11-3.2l-2.1,2.32c-.32.36-.59.76-.63,1.23Z"/>
            <path class="cls-7" d="M194.45,85.13c-2.82,3.99-3.21,9.36-3.07,14.17l.76,9.85c-.79,8.33-5.32,15.97-12.25,20.78-.63.43-1.29.66-1.04-.23,3.11-7.36,1.64-15.34-1.42-22.66l-2.74,2.15c-3.69,2.9-7.07,5.94-10.42,9.5-.98-2.59-1.6-5.06-1.97-7.72-.67-5.61.9-11.02,4.55-15.47-4.32.84-7.95,2.8-11.24,5.82.67-5.29,2.54-10.35,5.77-14.58.61-.8,1.24-1.71,2.08-1.99.48-.16.8-.28,1.31-.59,9.15-5.72,22.61-9.55,32.33-3.96.26.15.44.43.49.62.15.66-1.94,1.21-3.13,4.32Z"/>
            <path class="cls-42" d="M142.87,113.58c-.01.28.1.57.25.9,2.9,6.12,4.57,13.69,2.23,20.42,2.56-1.13,4.44-2.87,6.55-4.76-.07,3.75-1.21,7.25-3.35,10.17,5.66-.95,10.58-3.56,14.62-7.69.38,5.01-.47,9.61-2.7,14.1,6.57-2.59,11.8-6.99,15.7-12.46.26-.21.52-.41.75-.48l.73-.67c4.35-1.48,8.11-4.11,11.35-7.32.5-.46.6-.32.82.28.43,1.19.1,4.07-.08,5.44-.37,2.77-1.2,5.46-2.34,8.01,6-3.67,9.67-10.2,11.2-16.93l.56-.67c.17,4.21-.31,8.41-1.63,12.53-3.28,10.27-11.64,18.06-22.08,20.61-.21.05-.22.45-.16.56.1.18.29.34.61.32l6-.41c-.59.49-1.28,1.08-2.16,1.08l-36.12-.03c3.11-4.02,2.27-8.67.01-12.93-1.48-2.89-3.47-5.37-5.69-7.72l-1.55-1.64c.91-2.29,1.58-4.55,1.88-7.03l1.11-9.44,1.13-7.34,1.89,3.51c.11.2.56-.22.46-.4Z"/>
            <path class="cls-29" d="M194.45,85.13c-1.18,3.09-1.55,6.37-1.24,9.79s1.34,6.59,2.26,9.92l2.82,10.2c.64,2.32.78,4.59.87,6.88-1.49,7.45-5.7,14.9-12.71,18.65,2.33-4.72,3.46-9.57,3.02-14.8-3.47,3.79-7.74,6.51-12.56,8.02-.04.01-.16.02-.26-.11l2.18-3.98c.07.18.3.28.44.17,3.43-2.55,6.39-5.45,8.6-9.12s3.76-7.66,3.85-11.99l-.65-7.54c-.42-4.91-.09-11.22,2.41-15.33.25-.41.5-.77.95-.75Z"/>
          </g>
          <g>
            <g>
              <path class="cls-34" d="M8.15,51.02c2.29.02,4.41.49,6.71,1.13,6.99,1.97,13.29,5.55,19,10.02.47.37.66.48.71,1.02-.5.16-1.07,0-1.72-.5-2.38-1.59-16.74-5.51-14.19,1.17,1.74,4.55,3.86,8.16,7.95,11.04.38.38.24.64-.13.95l-2.96-.21c1.98,4.98,6.72,8.46,11.63,10.32l.43.58-.28,2.08c-.13.18-.29.34-.51.39-.54.14-3.14-.26-3.47-.86-2.02.17-3.93-.68-5.75-1.5-3.59-1.63-6.83-3.98-9.53-6.85-1.69-1.79-4.81-5.75-5.48-8.03-.09-.31-.06-.63.02-.94-.16-.11-.32-.23-.45-.36s-.26-.27-.33-.42c-1.96-4.84-3.94-11.95-3.28-17.12.09-.7.8-2.32,1.62-1.91Z"/>
              <path class="cls-27" d="M22.53,42.77c.72.24.91.51,1.09,1.22,1.1,4.33-5.57,7.13-8.99,7.23-1.74-.54-3.62-.82-5.52-.93-.73-.04-.68.52-.96.73-.83.65-1.29,1.57-1.3,2.83-.03,5.9,1.4,11.67,3.74,16.98.17.53.02.67-.53.49-1.85-.6-4.93-4.85-5.92-6.73C2.62,60.23-.06,49.86,1.14,46.27c.4-1.21,1.67-1.61,2.77-2.16,6.05-1.83,12.43-2.24,18.62-1.33Z"/>
              <path class="cls-32" d="M34.56,63.2l.29,3.53c-2.57-.37-6.53-1.01-7.27.2-.27.44-.15.89-.01,1.37.89,3.09,2.76,5.71,5.54,7.15-1.67,1.57-2.6,3.53-3.07,5.65-.18.81.51,1.46,1.26,1.56,1.83.43,3.56.16,5.46-.02l-1.19,3.91c-5.35-1.77-10.78-5.91-12.77-11.36l3.86.27c-4.06-2.93-7.01-6.85-8.41-11.48-.32-1.06-.4-2.3.28-3.15,2.2-2.74,12.36-.1,16.02,2.37Z"/>
              <path class="cls-26" d="M14.62,51.22c-.04-.06-.08-.31,0-.38,3.4-.51,7.21-1.63,8.44-4.81.45-1.18.27-2.35-.53-3.26,4.85.66,9.51,2.21,13.99,4.3-1.38,4.78-2.03,9.52-2.02,14.54-4.06-3.26-8.32-5.82-13-7.98-2.27-1.06-4.57-1.7-6.87-2.41Z"/>
              <path class="cls-24" d="M37.42,108.57c-1.96.19-3.9.1-5.8-.95,4.27-3.23,6.88-8.14,8.15-13.35.06-.23.02-.49-.09-.57-.13-.1-.42-.13-.61.05-3.44,3.15-8.65,3.84-12.66,1.21,1.63-.95,3.08-1.71,4.09-3.18-2.38-.35-4.32-1-6.2-1.86v-.52c.94-.19,1.91-.32,2.91-.4,1.39-.6,2.76-.88,4.12-.84,1.27.15,2.7.46,3.97.46.23,0,.55.35.81,0,.72.86-.59,1.95-.02,3.11l1.86-1.74,4.85-4.03-1.06,6.41c-.83,5.01-2.69,10.78-6.65,14.27,1.71.18,3.07-.86,4.8-1.44-.75,1.37-1.98,2.11-2.48,3.35Z"/>
              <path class="cls-18" d="M10.59,70.84c3.81,8.64,11.47,15.25,20.74,17.32-.98-.12-2.92,1.45-5.97,1.44-.41,0-.77-.04-1.06.32-6.13-2.78-11.25-7.88-14.77-13.78-2.21-3.7-4.02-7.55-5.4-11.55l3.29,3.9c.86,1.08,1.86,1.96,3.01,2.6.09-.11.09-.19.15-.26Z"/>
              <path class="cls-29" d="M96.58,123.63c.13-.47.56-.61,1.02-.86,4.47-2.39,8.81-4.79,13.48-6.83l10.9-4.78c4.34-1.9,8.25-4.29,12.14-6.97l5.35-3.21c.4-.24,1.01-.13,1.27-.57.12.03.37.02.42.12.06.13-.05.4-.2.53-7.73,6.67-18.71,12.59-28.25,16.3l-16.12,6.27Z"/>
              <path class="cls-13" d="M145.26,90.68c-1.79,3.22-4.59,5.86-7.71,7.98-.26.18-.42.3-.49.56-2.1-.12-4.14-.05-6.38.43,3.02-5.43,8.59-8.61,14.58-8.96Z"/>
              <path class="cls-46" d="M64.65,112.37c.11.69-.37.6-.87.34-2.72-1.75-5.74-3.03-9.1-3.15-2.66-.09-5.26.58-7.16,2.4-2.46,2.36-2.82,5.9-1.38,9-1.49.11-2.84.4-4.28.78-.63-1.15-.29-2.33.22-3.61-2.28-.29-4.7,1.33-5.16,1.18-.07-.02-.13-.15-.17-.22,1.79-2.32,4.31-3.85,7.36-4.49,4.52-7.27,14.05-7.2,20.53-2.24Z"/>
              <path class="cls-5" d="M74.98,100.43c-.01.57-.73-.37-1.22-.41-5.45-3.41-11.93-4.83-17.52-.89l-.37.02c-1.09.91-1.94,2.15-2.8,3.31-.45-.25-.63-.88-.56-1.46.7-5.8,6.01-9.66,11.78-8.82,4.85.71,9.01,3.74,10.68,8.26Z"/>
              <path class="cls-5" d="M118.72,85.35c.39-7.44-4.82-14.76-12.18-14.2-3.48.26-6.38,2.2-8.52,4.89-2.63,3.31-3.82,7.42-3.74,11.54-.67-.88-.59-2.91-.44-4.51.4-4.32,2.21-8.39,5.42-11.24,5.38-4.78,13.44-3.8,17.49,2.12,1.88,2.74,2.63,5.99,2.4,9.37-.05.74,0,1.5-.43,2.03Z"/>
              <path class="cls-51" d="M105.3,59.22c.22.31.35.69.2.97-.41.77-7.04-.68-12.81,6.22-.24.29-.57.49-.86.4-1.08-.31-.52-3.53.9-5.41,2.96-3.93,8.64-5.03,12.58-2.18Z"/>
              <g>
                <path class="cls-26" d="M117.32,60.9c.79-.3,1.64-.05,2.57.74,4.69,4.08,8.75,8.78,11.75,14.46,1.39,2.11,3.54,3.79,5.89,4.62,2.23.66,4.45,1.58,6.95,1.46-.67,2-2.13,2.86-3.94,3.71,1.21.85,2.33,1.3,3.01,2.28l-1.01-.07c-8.68-4.74-18.26-2.97-25.55,3.41-.47.04-.56-.16-.29-.52-.08-.55.11-1.11.57-1.68l.83-2.3c.01-.73.22-1.29.64-1.66,1.2-7.43-2.97-15.92-11.3-16.15-9.29-.25-14.42,10.28-13.15,18.38l.43.47c.2,3.25,1.88,6.36,4.75,7.99l.24.59c.03.42-.23.59-.79.51l-7.76-1.12c-4.89-.43-9.48,1.26-13.11,4.52-.42.31-.66.2-.74-.33-.31-4.61-2.01-8.65-4.65-12.4l-.08-.43c-.15,0-.23.07-.24.22,1.56,1.76,2.21,4.53,2.69,6.86.22,1.04.66,4.5.38,5.34-.08.25-.21.46-.42.62l-.33-.17c-2.75-5.97-10.48-9.85-16.6-6.66-3.15,1.65-5.6,5.31-4.97,8.85.48.37.15.89-.25,1.22-7.42,1.16-15.13,5.94-16.29,13.8l-.43.45c-1.01-2.7-.71-5.81.9-8.32.26-.4.27-.73.4-1.05-.32-.35-.22-.77.29-1.25,1.42-1.29,1.21-1.46-.61-.51-.86.25-2.41.68-2.07-.61,3.39-3.15,4.76-7.32,5.89-11.66.16-.62,1.5-7.14,1.3-7.46l-3.99,3.24c-1.91,2.11-2.78,2.18-2.61.21.16-.65.32-1.28.5-1.89.29-2.48.91-4.89,2.34-7.22-2.58.35-5.61,1.26-7.65.04.46-2.6,1.79-4.7,4.05-6.34-3.56-.97-6.12-4.29-6.55-7.91,2.34-.38,4.51-.03,6.7.54.26,2.34,1.07,4.34,1.61,6.52.25,1.03.35,1.94,1.35,2.6,3.26,2.15,8.2,1.02,11.77-.48l.81-.03c2.42-1.01,4.69-2.32,6.81-3.94,4.26-2.5,6.36-2.18,10.19.68,3.27,3.05,6.99,5.57,11.69,5.02-.89-2.19-1.06-4.7-.7-7.06.25-1.62.42-2.41,1.73-1.03.46.07,1.02-.41,1.33-.73,2.73-3.07,6.56-7.32,10.65-8.5.54-.16.82.14.47.61l.17.46c-1.18,1.48-2.36,7.13.7,2.96,3.1-3.24,7.24-4.53,11.53-4.86-.04-.3.01-.55.17-.75l.48-.46c3.42-.27,6.78.17,10.07,1.34.61.15,1.1.42,1.46.81Z"/>
                <path class="cls-50" d="M62.38,77.87c-5.19.11-8.88,2.98-11.63,7.23-.2.3-.57.41-.85.27-1.53-.77,1.21-9.23,7.21-10.57,3.56-.8,6.61,1.11,6.25,2.45-.11.39-.48.6-.97.61Z"/>
                <path class="cls-38" d="M72.56,87.4l-.24.22c-.15-.33-.61-.52-.57-1.06.44.2.57.57.81.84Z"/>
              </g>
              <g>
                <path class="cls-21" d="M117.11,60.34c.57.13.77.23.21.57l-5.75-1.52c-2.02-.53-4.27-.4-6.27-.16l-.62.07c-3.68-2.33-8.59-1.29-11.34,1.99l-.62.12c0-.22-.16-.3-.35-.22-3.74,1.56-6.38,3.76-8.99,6.73l-1.24,1.41c-.49.55-1.2,1.21-1.97,1.1-.35-.05-.55-.63-1-.83-.36,1.71-.37,3.42-.35,5.2.02,1.3.59,2.34.94,3.74-3.51.32-7.08-.61-9.76-2.83-3.12-2.6-6.15-5.81-10.24-4.08-3.4,1.44-5.75,3.99-8.57,4.84-.6.18-.85.41-1.47-.08,2.35-.98,4.52-2.19,6.61-3.79l7.61-5.82c3.48-2.66,6.96-5.05,10.93-6.98,8.44-4.11,17.78-5.76,27.14-4.68,5.45.63,10.47,2.58,15.08,5.23Z"/>
                <path class="cls-26" d="M80.54,60.8c-2.38,5.09-4.3,10.84-2.42,16.62-5.08-.36-9.65-3.74-11.25-8.71,3.82-3.62,8.29-6.34,13.67-7.91Z"/>
              </g>
              <g>
                <path class="cls-19" d="M143.53,88.18c.75,1.08,2.23,1.7,1.99,2.08l-.27.42-.63.46c-5.2.47-10.58,3.44-12.97,7.91l2.74-.27c1.07-.19,1.95-.04,2.66.44,1.26.07,2.7.41,3.68,1.19.12.47-.24.78-1.08.93-4.57,2.8-9.25,5.64-14.03,8.52-5.74,2.65-11.5,5.24-17.28,7.78-3.98,1.97-7.9,3.97-11.76,5.99-1.81.7-3.74,1.35-5.68,1.22-.74.1-1.48.05-2.22,0-5.74-.44-11.66-1.51-17.31-2.56-.83-3.03-2.39-5.64-4.68-7.79l-.43-.89c-.57.28-1.65-.63-1.62-1.24l-.72-.03c-6.32-4.46-15.21-4.57-19.59,2.6-3.01.54-4.77,2.04-6.93,3.96-.18.16-.4.22-.65.21-.35-.22-.49-.77-.64-1.17.1-3.42,2.26-6.84,4.88-9.25,3.17-2.92,7.14-4.6,11.41-5.26.53-.08.5-.71.68-.96l-.04-.63,1.35-1.76c.42-.69.92-.99,1.49-.92l.55-.13c5.32-3.73,12.19-2.08,17.33,1,.17-.44.58-.3,1.22.41.04-1.78.07-3.6-.27-5.45-.48-2.61-1.34-5.03-2.38-7.37-.21-.34-.09-.45.24-.22,3.13,3.59,4.88,8.09,5.09,13.1,3.83-3.82,8.93-5.39,14.25-4.79l6.52,1.01c.46.07.92.06,1.28-.07l.47-.25c5.64,1.31,12-.66,15.79-5.14l.72-.25c-.07.24.22.34.25.08,8.42-6.94,17.02-8.04,26.61-2.9Z"/>
                <g>
                  <path class="cls-28" d="M90.9,124.85c-1.17.38-2.38.07-3.69,0-5.7-.31-11.19-1.14-16.8-1.88-.54-3.16-2.06-5.81-4.02-8.06-.41-.53-.45-.97-.13-1.31,2.58,2.18,4.63,5,5.38,8.44l17.05,2.66,2.21.14Z"/>
                  <path class="cls-56" d="M64.65,112.37c.62.31,1.11.81,1.62,1.24.17.41.32.84.13,1.31l-2.61-2.21.87-.34Z"/>
                  <path class="cls-44" d="M78.46,102.79l.52-.36c4.17.22,8.4-1.46,11.36-4.39l.63-.08c1.37.98-.04,3.81-1.43,5.58-1.55,1.96-3.98,2.79-6.45,2.43-2.27-.34-5.01-1.49-4.62-3.18Z"/>
                  <path class="cls-1" d="M90.97,97.96c-2.84,3.25-8.27,5.37-12.51,4.83.86-3.75,9.67-6.86,12.51-4.83Z"/>
                  <path class="cls-23" d="M73.77,100.02c-1.5-.12-9.4-5.38-16.8-1-.41.24-.68.45-1.08.13,5.24-4.38,12.78-3.37,17.89.87Z"/>
                  <g>
                    <path class="cls-37" d="M71.08,109.27l-1.32,1.17c-.3-1.53,1-2.88,2.63-2.9-.02.43-.32.66-.56,1.04.58.95,1.46,1.51,2.49,1.9,4.37,1.65,9.06-.27,12.23-3.55,6.25,1.39,13.25-.37,16.44-6.16l-1.29-.37c1.54-1.23,3.63-.96,4.91.36l-2.45-.08c-.34,1.27-1.5,2.17-1.95,3.27-1.21,5.27-2.68,11.51-6.63,15.19-3.46,3.23-8.06,2.87-11.95.3-3.04-2.01-5.52-4.59-7.73-7.51-1.88-.33-3.57-1.03-4.81-2.65Z"/>
                    <path class="cls-41" d="M83.46,118.05c.04-1.53,1.22-2.8,2.35-3.73,2.81-2.31,6.03-3.23,9.6-3.12-.21-.49-.28-.79.32-.7,1.22.25,2.32.69,3.39,1.52-1.16,3.37-3.34,7.09-6.64,8.26-4.15,1.47-8.82-1.09-9.01-2.23Z"/>
                    <path class="cls-25" d="M95.73,110.5c-.5.2.57.57.32.94-.37.57-4.5-.74-9.25,2.61-1.22.86-3.05,2.86-3.34,4.01-.75-4.52,6.17-8.82,12.26-7.56Z"/>
                  </g>
                </g>
              </g>
              <g>
                <path class="cls-15" d="M118.72,85.35c-.11,1.99-.82,4.05-2.04,5.64-3.21,4.2-8.44,6.37-13.79,6.19-1.16-.04-2.27-.13-3.19-.54-3.41-1.7-5.35-5.3-5.42-9.06-1.24-7.78,5.03-16.98,13.3-16.86,7.11.1,12.44,7.92,11.15,14.63Z"/>
                <path class="cls-10" d="M113.16,83.31c.93,3,.69,6.22-.92,8.95-1.78,3.02-5.03,4.69-8.48,4.17.28-.05.61.05.77-.28-1.34.07-2.52-.6-2.88-1.84-.11-.37,0-.76.25-.99,2.43.96,5.02.4,6.74-1.63,1.52-1.79,2.07-4.15,1.71-6.56-.14-.93-.18-1.99.79-2.54.62-.35,1.61.14,1.71.93.22.03.26-.17.32-.22Z"/>
                <g>
                  <path class="cls-5" d="M113.16,83.31c.05.44-.02.67-.48.5-.73-1.44-2.01-1.11-2.01.54,1.17,5.47-2.66,11.32-8.64,9.5-.03,1.24,1.27,1.94,2.41,1.91.67.68,0,.72-.68.67-2.42-.37-4.42-1.71-5.75-3.81-2.42-3.82-2.38-8.83.1-12.59,2.78-4.2,8.3-4.79,12-1.5,1.47,1.3,2.46,2.88,3.05,4.77Z"/>
                  <path class="cls-15" d="M101.72,84.71c-1.17.81-2.68.34-3.19-.92s-.14-2.8.8-3.79c.59-.62,1.32-.9,2.18-.75.61.11,1.3.63,1.57,1.42.5,1.44-.02,3.11-1.36,4.03Z"/>
                </g>
              </g>
            </g>
            <g>
              <path class="cls-45" d="M62.58,132.57l1.57.22c.51,2.3-.32,5.03-1.86,6.79-.64.74-1.11,1.14-2.13,1.18-2.99-.27-5.65-1.27-8.73-2.61,1.35,1.56,3.36,2.17,5.27,2.67,1.84.75,3.78,1.13,5.81,1.15,2.7,7.74-5.79,14.23-12.93,14.4-3.88.09-8.65-1.32-11.06-4.48-2.7-7.49,2.43-15.52,9.56-18.71.56-2.49,1.17-4.7,2.58-6.82l3.59,1.94,2.66,2.4c1.74,1.14,3.75,1.46,5.68,1.86Z"/>
              <path class="cls-8" d="M60.87,131.34c-2.19-.36-4.54-1.62-5.75-3.53-4.37-1.78-8.51-5.06-8.99-9.9-.19-1.95.47-4.29,2.02-5.25.54-.63,2.35-1.6,3.15-1.54,1.01.08.84.48.48,1.26,2.09-2.05,3.08-2.1,6.05-1.29,6.63,1.8,12.62,8.25,10.86,15.44-.95,3.88-4.05,5.59-7.82,4.8Z"/>
              <path class="cls-26" d="M117.2,149.56c4.84,3.69,5.49,11.93-.93,14.25-3.67,1.33-6.03-.45-5.09-4.39-.4,1.2-.72,2.43-.96,3.68-.38.76-.8.99-1.27.7-.52,1.2-2.4,1.16-3.62,1.04-3.47-.34-4.34-3.7-3.28-6.65l-.56,1.29c-.44,4.21-4.61,3.13-5.16-.36-.08-1.76.55-3.28,1.51-4.76,2.22-3.44,5.72-5.62,9.69-6.58,3.39-.81,6.87-.28,9.66,1.78Z"/>
              <path class="cls-16" d="M38.52,151.9c2.65,2.17,5.71,3.7,9.21,4.02,5.75.53,11.11-2.23,13.94-7.22,1.14-2.01,1.26-4.29.6-6.45-2.01-.1-4.34-.41-5.58-1.42,5.02,1.32,10.97,1.35,14-3.35,4.28,6.18,1.93,14.13-3.82,18.32s-13.6,5.51-20.54,3.43c-3.53-1.06-6.62-4-7.82-7.33Z"/>
              <path class="cls-9" d="M79.85,148.63c.38.11.69.35.99.66,1.09,1.07,3.66,2.14,5.15,1.89l.38-.24,2.1,1.42c.77-.61,2-.86,2.93-.47.44-.57.87-.77,1.29-.59,3.58-.22,6.81-1.99,9.23-4.65.38-.42.67-.78.51-1.35.24-.54.67-.32.6.24.22.13.39.17.64.08-.39-.47.6-1.06.99-.62-.02.65.57,1.2,1.27,1.19.59.54-.21,1.14-.76,1.42-4.03,1.34-7.92,4.79-9.41,8.96l-28.21-.18c6.24-5.15,8.25-13.07,3.53-19.77.44-1.39.59-2.63.48-4.16,2.29,1.35,4.53,2.34,6.87,3.28-1.46,4.49-2.31,9.01-2.16,13.64.03,1.07,1.38,1.51,2.21,1.26s1.35-1.08,1.38-2.02Z"/>
              <path class="cls-16" d="M119.93,150.83c.74.11,1.35.62,1.84,1.54.82,1.25,1.38,2.63,1.7,4.13,1.89,1.54,4.36-.32,3.6-2.79.02-.57.06-1.07.72-1.05.52.43.81,1.11.85,2.06l.2-.6c1.41.85,2.96.92,4.58.62,5.15-.94,9.05-4.19,10.19-9.25,1.81,4.2,1.78,8.61-1.82,11.71-1.09.94-2.26,1.71-3.6,2.3-6.73,2.95-11.49,2.06-12.97,2.69-1.56.66-3.11,1.18-4.97.85,3.27-3.43,2.31-8.65-.3-12.23Z"/>
              <path class="cls-45" d="M118.74,145.05c.18-.15.41-.26.65-.19,4.12,1.22,6.72,3.49,8.53,7.29.09.19.03.36-.14.51-.78,1.08.28,2.72-.78,3.87-.88.96-2.76,1.21-3.58.55-1.02-.82,0-2.74-3.49-6.25-2.63-2.65-5.92-4.28-9.83-4.3,2.66-1.8,5.78-2.13,8.64-1.47Z"/>
              <path class="cls-16" d="M60.16,140.77c2.63-1.28,4.24-5.08,3.6-8-.48.11-.87-.13-1.18-.2,2.89.29,5.77-.25,7.03-2.92,1.58,2.07,1.53,4.43.7,6.77-.61,1.72-2.06,2.98-3.81,3.69-2.06.83-4.27.84-6.35.66Z"/>
              <path class="cls-9" d="M85,131.28c-.9.25-1.54-.11-2.32-.52l-8.1-4.26c-.7-.37-1.58.03-2.02.42-1.47,1.3-.21,4.12,2.2,5.87.42.31.87.56,1.03,1.03-1.48-.65-3.21-1.26-4.36-2.57l-1.41-2.6c.53-1.67.65-3.23.57-4.83l7.67.99,6.44.72-1.51,4.2,1.82,1.56Z"/>
              <path class="cls-30" d="M103.69,123.83c-4.61,3.37-9.04,6.95-13.51,10.75l-2.93-2.48-3.07-2.67.79-2.26.68-.09c4.87,2.6,10.14.02,14.56-2.2l2.7-1.54c.56-.15,1.03-.2.78.5Z"/>
              <path class="cls-42" d="M106.32,121.37v.21c-.68.96-1.69,1.57-2.63,2.25-.19-.76-2.11.84-3.38,1.44l-2.07.99c-4.45,2.14-8.85,3.48-13.27.9.18-.52.35-1.08.81-1.59,4.21.59,8.16,0,12.08-1.5l8.26-3.16c.18-.07.29.4.19.45Z"/>
              <path class="cls-49" d="M60.87,131.34h1.32c2.73-.02,4.96-1.56,5.87-4.13.79-2.21.7-4.63-.17-6.9-1.99-5.14-6.71-8.68-12.17-9.35-2.33-.29-3.86,1.49-4.78,3.79-.38-1.18.3-2.04.79-3.28-1.27-.22-2.38.46-3.57,1.2.13-.34.37-.6.69-.79,5.97-3.49,14.12-.37,18.06,4.96,3.01,4.08,4.23,10.23.93,13.84-1.27,1.39-4.76,1.23-6.97.67Z"/>
              <path class="cls-14" d="M79.03,148.67c-.04.77-.35,1.18-.88,1.23-.65.06-1.18-.35-1.16-1.08.13-5.24,1.13-10.27,3.02-15.12.23-.58.76-.8,1.25-.6s.72.74.52,1.34c-1.52,4.61-2.49,9.27-2.76,14.23Z"/>
              <path class="cls-43" d="M109.11,165.38c-.89.01-.96-1.15-.15-1.58.7-.42,1.1-.96,1.17-1.84.12-1.6.6-3.18,1.93-4.23-.38,1.62-.93,3.03-.5,4.62.21.79,1.24,1.45,2.17,1.48,3.7.11,6.74-2.96,6.87-6.63.07-2-.34-3.72-1.58-5.21l-1.82-2.42c2.23,1.65,3.72,3.85,4.21,6.56.65,3.63-1.18,6.93-4.56,8.32-1.85.76-3.73.89-5.56-.12-.72.63-1.4.81-2.18,1.05Z"/>
              <path class="cls-9" d="M110.33,145.52c-.45.23-.77.69-1.07,1.14l-4.1.94.76-1.42c.72-1.3,1.17-2.76,1.4-4.33l.82-5.46c.18-1.2.5-2.12,1.16-3.17.18-.28.06-.98.54-1.09l.14.37c-1.39,4.19-.68,8.48.76,12.53l-.42.48Z"/>
              <path class="cls-42" d="M108.96,163.8c-.34.48-.13,1.03.15,1.58-2.08.65-4.66.33-6.46-1.06-.64-.5-.94-.82-1.84-.84-2.45-.05-4.37-1.95-4.47-4.37l.89,1.63c.89,1.13,2.49,1.45,3.49.36.27-1.93.99-3.76,2.6-4.97-.82,1.78-1.48,3.53-1.19,5.46.25,1.68,1.78,2.73,3.4,2.86,1.28.1,2.43-.05,3.44-.65Z"/>
              <g>
                <path class="cls-45" d="M143.6,145.5c.28,1.09-.13,1.93-.59,2.9-1.95,4.04-6.34,6.58-10.73,6.91-1.13.08-3.01-.01-3.45-1.17l-.32-.21c-1.24-5.09-4.67-7.4-9.29-9.1-.22-.08-.37-.23-.45-.46-.11-.02-.28-.06-.39-.04l-.85-.17h-4.01c2.6-2.33,5.89-3.57,9.3-3.73-.57-.33-1.2-.39-1.93-.27-6.59,1.09-7.86,3.99-9.44,4.81-.45.16-.51.17-.78-.12-.26-.26-1.26-4.86-1.3-5.43-.19-2.91-.02-4.32.79-7.1.06-.22-.03-.25-.29-.16-.49.95-.87,1.97-1.12,3.05-.37,2.83-.83,5.66-1.36,8.48l-.82,2.19-.62.32c-.61.88-2.13-.52-1.27-1.19.1-.57.15-1.14.16-1.73l-1.96-10.31.35-.31c.05-.3-.05-.54-.27-.74-.35-.03-.56-.31-.64-.82-2.13-2.42-3.06,1.07-2.16,2.91-.3.44-.27.76.11.96l1.76,9.2c.25.39.38.77.41,1.15.66.38.42.83.02,1.35-1.25,1.62-3.46,3.17-5.34,3.98-1.24.54-3.26,1.35-4.42.66-.54-.33.6-1.76,1.15-1.48.16-.06.24-.19.21-.38l-.23-.49c2.11-9.32-12.14-6.82-8.16,1.33.36.29.48.59.34.9-.32.93-2.33.15-3.1-.16-.71-.29-1.29-.64-1.92-1.08-.41-.29-1.15-.84-1.12-1.31.13-3.91.89-7.78,2.02-11.63l2.19.43.09-.12-2.03-.96c.37-1.78,1.1-3.51-.62-4.08-.73-.24-1.73-.04-2.08.85l-.78,1.95-2.86-1.26c-2-.96-5.29-4.11-4-6.54.63-1.18,1.73-1.46,2.96-1.15,3.35,1.88,6.77,3.6,10.25,5.16l4.62,3.93c.08.07.03.59.12.56l.5-.21c5.86-4.92,11.82-9.58,18.07-14.01.69-.49,1.21-.93,1.69-1.62-1.33.44-2.34,1.14-3.52,1.82-.11.06-.21-.07-.17-.17-.17-.07-.17-.14.01-.21l.46-.8,11.82-4.84,7.81-3.91c1.36.87,2.51,1.82,3.54,3,3.52,4.03,3.47,9.71.22,13.94-.09.25.36.78.55.97l6.74,6.88c2.59,2.65,4.71,5.57,6.14,8.89Z"/>
                <g>
                  <path class="cls-47" d="M128.83,154.13c.4,1.92.33,3.94-.32,5.86-.1.29-.27.59-.7.38,1.04-2.53.82-5.26-.02-7.7-.49-1.43-1.16-2.71-2.37-3.83-1.9-1.77-4.16-3.2-6.67-3.78.2-.25.16-.54.02-.71,4.95,1.06,9.02,4.7,10.07,9.78Z"/>
                  <path class="cls-57" d="M111.43,144.95l-1.1.57c.12-.33-.07-.69-.2-1.1-1.32-4.01-1.84-8.51-.28-12.28.46-1.05.88-2.2,2.08-2.86-2.02,3.38-2.8,6.96-2.14,10.77l1.11,4.39c.09.34.2.54.53.51Z"/>
                  <path class="cls-47" d="M118.37,144.31c-.29.06-.68.12-.85-.17.26,0,.63-.09.85.17Z"/>
                  <path class="cls-40" d="M103.21,132.65c-.05-.28-.14-.5-.27-.74.08,0,.28.04.45-.08,5.93-4.08,12.16-8.91,19.52-8.13,2.28.24,4.46,1.07,5.83,3.03-8.9-5.63-16.76.06-24.41,5.23-.38.26-.69.53-1.12.69Z"/>
                  <path class="cls-55" d="M95.95,144.42c-.26.13-.45.02-.53-.06-.16-.19-.1-.44.16-.59l1.65-.95c.22-.13.4-.02.5.07.18.16.19.55-.1.7l-1.68.84Z"/>
                  <path class="cls-11" d="M97.88,146.35l-1.86-.06c-.21,0-.25-.27-.21-.39.17-.57,2.97-.62,2.56.15-.05.1-.15.31-.49.3Z"/>
                  <path class="cls-20" d="M94.5,143.01c-.19.16-.61-.25-.49-.43l1.07-1.56c.09-.13.28-.18.36-.22.12-.05.48.21.45.36-.24.68-.73,1.29-1.39,1.85Z"/>
                </g>
              </g>
              <g>
                <path class="cls-15" d="M94.04,149.43c.2.24.13.46-.21.38l-1.15,1.48-1.31,1.16c-.44-.62-1.46-.32-2.6.05.58.45,1.19.65,1.91.38-.24.41-.43.56-.87.88l-3.82-2.59c-1.85-1.26-2.28-5.57.7-7.65,1.77-1.24,4.09-1.38,5.94-.11,1.98,1.36,2.43,3.92,1.42,6.02Z"/>
                <path class="cls-9" d="M93.83,149.82c.07-.16.13-.31.21-.38.27.11.32.31.29.49-.01.09-.18.14-.24.08-.05-.05-.16-.2-.26-.19Z"/>
                <path class="cls-9" d="M90.33,147.24c-.01.64-1.43.81-1.54.23l-.31-1.65c-.85.44-1.14,1.23-1.07,2.05.06.69.56,1.31,1.36,1.61l.08,1.95c-1.19-.54-2.43-1.44-2.82-2.85-.59-2.08.88-4.03,2.92-4.5,1.21-.27,2.46.08,3.24.89,1.72,1.76.91,4.54-1.26,6.15l-.17-1.95c.67-.48,1-1.15.99-1.88s-.42-1.51-1.4-1.79l-.03,1.74Z"/>
              </g>
              <g>
                <path class="cls-53" d="M102.94,131.91c.66.03.8.37.27.74l1.98,10.38c.15.76.11,1.57-.53,1.97l-.99.62c-.23.1-.43.05-.64-.08l-.6-.24c-.42-.17-.73-.63-.83-1.13l-1.77-9.28c-1.13.34-1.87,1.26-3.13,1.28l3.07-2.03-.36-2.01c-.13-.74.13-1.32.61-1.76.39-.36.97-.65,1.61-.44.86.29,1.23,1.16,1.32,1.97Z"/>
                <path class="cls-9" d="M103.66,145.62c-.15.09-.3.22-.41.12l-.23-.2.64.08Z"/>
                <path class="cls-14" d="M104.44,143.44c.13.66-.32,1.09-.76,1.22s-1.17-.06-1.28-.69l-2.22-12.18c-.1-.53.46-1.02.78-1.1.48-.11.96.24,1.09.87l2.39,11.88Z"/>
              </g>
            </g>
          </g>
        </g>
      </g>
    </g>
  </g>
</svg>